<?xml version="1.0" encoding="UTF-8"?>
<svg width="285px" height="55px" viewBox="0 0 285 55" version="1.1" xmlns="http://www.w3.org/2000/svg" xmlns:xlink="http://www.w3.org/1999/xlink">
    <!-- Generator: Sketch 51.3 (57544) - http://www.bohemiancoding.com/sketch -->
    <title>Artboard</title>
    <desc>Created with Sketch.</desc>
    <defs></defs>
    <g id="Artboard" stroke="none" stroke-width="1" fill="none" fill-rule="evenodd">
        <g id="Group-6" transform="translate(13.000000, 21.000000)">
            <path d="M18.285,1.24 L18.285,22.93 L16.215,22.93 C15.8949984,22.93 15.6275011,22.8775005 15.4125,22.7725 C15.1974989,22.6674995 14.990001,22.4900012 14.79,22.24 L3.465,7.78 C3.5250003,8.4400033 3.555,9.0499972 3.555,9.61 L3.555,22.93 L0,22.93 L0,1.24 L2.115,1.24 C2.28500085,1.24 2.43249938,1.24749993 2.5575,1.2625 C2.68250063,1.27750008 2.79249953,1.30749977 2.8875,1.3525 C2.98250048,1.39750023 3.07499955,1.46249958 3.165,1.5475 C3.25500045,1.63250042 3.35499945,1.7449993 3.465,1.885 L14.835,16.405 C14.8049999,16.0549983 14.7800001,15.7100017 14.76,15.37 C14.7399999,15.0299983 14.73,14.7150015 14.73,14.425 L14.73,1.24 L18.285,1.24 Z M29.165,22.93 L25.115,22.93 L25.115,1.24 L29.165,1.24 L29.165,22.93 Z M47.56,5.185 C47.4399994,5.39500105 47.3125007,5.54749952 47.1775,5.6425 C47.0424993,5.73750047 46.875001,5.785 46.675,5.785 C46.464999,5.785 46.2375012,5.70750077 45.9925,5.5525 C45.7474988,5.39749923 45.4550017,5.22500095 45.115,5.035 C44.7749983,4.84499905 44.3775023,4.67250077 43.9225,4.5175 C43.4674977,4.36249922 42.9300031,4.285 42.31,4.285 C41.7499972,4.285 41.2600021,4.35249933 40.84,4.4875 C40.4199979,4.62250068 40.0675014,4.8099988 39.7825,5.05 C39.4974986,5.2900012 39.2850007,5.57749833 39.145,5.9125 C39.0049993,6.24750167 38.935,6.614998 38.935,7.015 C38.935,7.52500255 39.0774986,7.9499983 39.3625,8.29 C39.6475014,8.6300017 40.0249976,8.9199988 40.495,9.16 C40.9650024,9.4000012 41.499997,9.61499905 42.1,9.805 C42.700003,9.99500095 43.3149969,10.1974989 43.945,10.4125 C44.5750032,10.6275011 45.189997,10.8774986 45.79,11.1625 C46.390003,11.4475014 46.9249977,11.8074978 47.395,12.2425 C47.8650023,12.6775022 48.2424986,13.2099968 48.5275,13.84 C48.8125014,14.4700032 48.955,15.2349955 48.955,16.135 C48.955,17.1150049 48.7875017,18.0324957 48.4525,18.8875 C48.1174983,19.7425043 47.6275032,20.4874968 46.9825,21.1225 C46.3374968,21.7575032 45.5500047,22.2574982 44.62,22.6225 C43.6899954,22.9875018 42.625006,23.17 41.425,23.17 C40.7349965,23.17 40.0550034,23.1025007 39.385,22.9675 C38.7149967,22.8324993 38.0725031,22.6400013 37.4575,22.39 C36.8424969,22.1399988 36.2650027,21.8400018 35.725,21.49 C35.1849973,21.1399983 34.7050021,20.7500022 34.285,20.32 L35.47,18.385 C35.5700005,18.2449993 35.6999992,18.1275005 35.86,18.0325 C36.0200008,17.9374995 36.1899991,17.89 36.37,17.89 C36.6200013,17.89 36.8899986,17.992499 37.18,18.1975 C37.4700014,18.402501 37.814998,18.6299987 38.215,18.88 C38.615002,19.1300013 39.0824973,19.357499 39.6175,19.5625 C40.1525027,19.767501 40.7949963,19.87 41.545,19.87 C42.6950057,19.87 43.5849969,19.5975027 44.215,19.0525 C44.8450032,18.5074973 45.16,17.7250051 45.16,16.705 C45.16,16.1349972 45.0175014,15.6700018 44.7325,15.31 C44.4474986,14.9499982 44.0700023,14.6475012 43.6,14.4025 C43.1299976,14.1574988 42.595003,13.9500008 41.995,13.78 C41.394997,13.6099992 40.7850031,13.425001 40.165,13.225 C39.5449969,13.024999 38.935003,12.7850014 38.335,12.505 C37.734997,12.2249986 37.2000023,11.8600022 36.73,11.41 C36.2599977,10.9599978 35.8825014,10.3975034 35.5975,9.7225 C35.3124986,9.04749663 35.17,8.21500495 35.17,7.225 C35.17,6.43499605 35.3274984,5.66500375 35.6425,4.915 C35.9575016,4.16499625 36.414997,3.5000029 37.015,2.92 C37.615003,2.3399971 38.3549956,1.87500175 39.235,1.525 C40.1150044,1.17499825 41.1249943,1 42.265,1 C43.5450064,1 44.7249946,1.199998 45.805,1.6 C46.8850054,2.000002 47.8049962,2.5599964 48.565,3.28 L47.56,5.185 Z M72.75,1.24 L72.75,22.93 L68.7,22.93 L68.7,13.45 L58.515,13.45 L58.515,22.93 L54.465,22.93 L54.465,1.24 L58.515,1.24 L58.515,10.57 L68.7,10.57 L68.7,1.24 L72.75,1.24 Z M91.04,14.74 L88.4,7.525 C88.2699994,7.2049984 88.1350007,6.8250022 87.995,6.385 C87.8549993,5.9449978 87.7150007,5.47000255 87.575,4.96 C87.4449994,5.47000255 87.3100007,5.94749778 87.17,6.3925 C87.0299993,6.83750223 86.8950006,7.22499835 86.765,7.555 L84.14,14.74 L91.04,14.74 Z M98.165,22.93 L95.045,22.93 C94.6949983,22.93 94.4100011,22.8425009 94.19,22.6675 C93.9699989,22.4924991 93.8050005,22.2750013 93.695,22.015 L92.075,17.59 L83.09,17.59 L81.47,22.015 C81.3899996,22.2450012 81.2350011,22.454999 81.005,22.645 C80.7749988,22.8350009 80.4900017,22.93 80.15,22.93 L77,22.93 L85.535,1.24 L89.645,1.24 L98.165,22.93 Z M115.12,19.6 L115.12,22.93 L102.415,22.93 L102.415,1.24 L106.45,1.24 L106.45,19.6 L115.12,19.6 Z" id="NISHAL" fill="#111111"></path>
            <rect id="Rectangle-2" fill="#ECB100" x="124" y="13" width="10" height="10" rx="1.11111111"></rect>
            <path d="M162.26,11.915 C162.26,13.5050079 161.995003,14.9649933 161.465,16.295 C160.934997,17.6250066 160.190005,18.7699952 159.23,19.73 C158.269995,20.6900048 157.115007,21.4349974 155.765,21.965 C154.414993,22.4950027 152.915008,22.76 151.265,22.76 L143,22.76 L143,1.07 L151.265,1.07 C152.915008,1.07 154.414993,1.33749732 155.765,1.8725 C157.115007,2.40750267 158.269995,3.15249522 159.23,4.1075 C160.190005,5.06250477 160.934997,6.20499335 161.465,7.535 C161.995003,8.86500665 162.26,10.324992 162.26,11.915 Z M158.12,11.915 C158.12,10.724994 157.962502,9.65750473 157.6475,8.7125 C157.332498,7.76749528 156.877503,6.96750328 156.2825,6.3125 C155.687497,5.65749672 154.967504,5.15500175 154.1225,4.805 C153.277496,4.45499825 152.325005,4.28 151.265,4.28 L147.05,4.28 L147.05,19.55 L151.265,19.55 C152.325005,19.55 153.277496,19.3750017 154.1225,19.025 C154.967504,18.6749983 155.687497,18.1725033 156.2825,17.5175 C156.877503,16.8624967 157.332498,16.0625047 157.6475,15.1175 C157.962502,14.1724953 158.12,13.105006 158.12,11.915 Z M171.865,4.28 L171.865,10.295 L179.455,10.295 L179.455,13.4 L171.865,13.4 L171.865,19.535 L181.495,19.535 L181.495,22.76 L167.815,22.76 L167.815,1.07 L181.495,1.07 L181.495,4.28 L171.865,4.28 Z M198.615,5.015 C198.494999,5.22500105 198.367501,5.37749952 198.2325,5.4725 C198.097499,5.56750047 197.930001,5.615 197.73,5.615 C197.519999,5.615 197.292501,5.53750077 197.0475,5.3825 C196.802499,5.22749922 196.510002,5.05500095 196.17,4.865 C195.829998,4.67499905 195.432502,4.50250077 194.9775,4.3475 C194.522498,4.19249922 193.985003,4.115 193.365,4.115 C192.804997,4.115 192.315002,4.18249932 191.895,4.3175 C191.474998,4.45250068 191.122501,4.6399988 190.8375,4.88 C190.552499,5.1200012 190.340001,5.40749833 190.2,5.7425 C190.059999,6.07750167 189.99,6.444998 189.99,6.845 C189.99,7.35500255 190.132499,7.7799983 190.4175,8.12 C190.702501,8.4600017 191.079998,8.7499988 191.55,8.99 C192.020002,9.2300012 192.554997,9.44499905 193.155,9.635 C193.755003,9.82500095 194.369997,10.0274989 195,10.2425 C195.630003,10.4575011 196.244997,10.7074986 196.845,10.9925 C197.445003,11.2775014 197.979998,11.6374978 198.45,12.0725 C198.920002,12.5075022 199.297499,13.0399968 199.5825,13.67 C199.867501,14.3000032 200.01,15.0649955 200.01,15.965 C200.01,16.9450049 199.842502,17.8624957 199.5075,18.7175 C199.172498,19.5725043 198.682503,20.3174968 198.0375,20.9525 C197.392497,21.5875032 196.605005,22.0874982 195.675,22.4525 C194.744995,22.8175018 193.680006,23 192.48,23 C191.789997,23 191.110003,22.9325007 190.44,22.7975 C189.769997,22.6624993 189.127503,22.4700012 188.5125,22.22 C187.897497,21.9699988 187.320003,21.6700017 186.78,21.32 C186.239997,20.9699983 185.760002,20.5800022 185.34,20.15 L186.525,18.215 C186.625,18.0749993 186.754999,17.9575005 186.915,17.8625 C187.075001,17.7674995 187.244999,17.72 187.425,17.72 C187.675001,17.72 187.944999,17.822499 188.235,18.0275 C188.525001,18.232501 188.869998,18.4599987 189.27,18.71 C189.670002,18.9600013 190.137497,19.187499 190.6725,19.3925 C191.207503,19.597501 191.849996,19.7 192.6,19.7 C193.750006,19.7 194.639997,19.4275027 195.27,18.8825 C195.900003,18.3374973 196.215,17.5550051 196.215,16.535 C196.215,15.9649972 196.072501,15.5000018 195.7875,15.14 C195.502499,14.7799982 195.125002,14.4775012 194.655,14.2325 C194.184998,13.9874988 193.650003,13.7800008 193.05,13.61 C192.449997,13.4399991 191.840003,13.255001 191.22,13.055 C190.599997,12.854999 189.990003,12.6150014 189.39,12.335 C188.789997,12.0549986 188.255002,11.6900022 187.785,11.24 C187.314998,10.7899978 186.937501,10.2275034 186.6525,9.5525 C186.367499,8.87749663 186.225,8.04500495 186.225,7.055 C186.225,6.26499605 186.382498,5.49500375 186.6975,4.745 C187.012502,3.99499625 187.469997,3.3300029 188.07,2.75 C188.670003,2.1699971 189.409996,1.70500175 190.29,1.355 C191.170004,1.00499825 192.179994,0.83 193.32,0.83 C194.600006,0.83 195.779995,1.029998 196.86,1.43 C197.940005,1.830002 198.859996,2.3899964 199.62,3.11 L198.615,5.015 Z M209.57,22.76 L205.52,22.76 L205.52,1.07 L209.57,1.07 L209.57,22.76 Z M234.295,11.885 L234.295,20.66 C233.194994,21.470004 232.022506,22.0624981 230.7775,22.4375 C229.532494,22.8125019 228.200007,23 226.78,23 C225.009991,23 223.407507,22.7250028 221.9725,22.175 C220.537493,21.6249972 219.312505,20.8600049 218.2975,19.88 C217.282495,18.8999951 216.500003,17.7300068 215.95,16.37 C215.399997,15.0099932 215.125,13.525008 215.125,11.915 C215.125,10.2849918 215.389997,8.7900068 215.92,7.43 C216.450003,6.0699932 217.202495,4.9000049 218.1775,3.92 C219.152505,2.9399951 220.334993,2.1800027 221.725,1.64 C223.115007,1.0999973 224.674991,0.83 226.405,0.83 C227.285004,0.83 228.107496,0.8999993 228.8725,1.04 C229.637504,1.1800007 230.347497,1.37249877 231.0025,1.6175 C231.657503,1.86250122 232.254997,2.15999825 232.795,2.51 C233.335003,2.86000175 233.829998,3.2449979 234.28,3.665 L233.125,5.495 C232.944999,5.78500145 232.710001,5.96249968 232.42,6.0275 C232.129999,6.09250032 231.815002,6.02000105 231.475,5.81 L230.485,5.24 C230.154998,5.04999905 229.787502,4.8850007 229.3825,4.745 C228.977498,4.6049993 228.522503,4.49000045 228.0175,4.4 C227.512497,4.30999955 226.930003,4.265 226.27,4.265 C225.199995,4.265 224.232504,4.4449982 223.3675,4.805 C222.502496,5.1650018 221.765003,5.67999665 221.155,6.35 C220.544997,7.02000335 220.075002,7.8249953 219.745,8.765 C219.414998,9.7050047 219.25,10.7549942 219.25,11.915 C219.25,13.1550062 219.427498,14.2624951 219.7825,15.2375 C220.137502,16.2125049 220.637497,17.0374966 221.2825,17.7125 C221.927503,18.3875034 222.704995,18.9024982 223.615,19.2575 C224.525005,19.6125018 225.539994,19.79 226.66,19.79 C227.460004,19.79 228.174997,19.7050009 228.805,19.535 C229.435003,19.3649991 230.049997,19.1350014 230.65,18.845 L230.65,14.915 L227.92,14.915 C227.659999,14.915 227.457501,14.8425007 227.3125,14.6975 C227.167499,14.5524993 227.095,14.3750011 227.095,14.165 L227.095,11.885 L234.295,11.885 Z M258.48,1.07 L258.48,22.76 L256.41,22.76 C256.089998,22.76 255.822501,22.7075005 255.6075,22.6025 C255.392499,22.4974995 255.185001,22.3200012 254.985,22.07 L243.66,7.61 C243.72,8.2700033 243.75,8.8799972 243.75,9.44 L243.75,22.76 L240.195,22.76 L240.195,1.07 L242.31,1.07 C242.480001,1.07 242.627499,1.07749992 242.7525,1.0925 C242.877501,1.10750007 242.9875,1.13749977 243.0825,1.1825 C243.1775,1.22750023 243.27,1.29249958 243.36,1.3775 C243.45,1.46250042 243.549999,1.5749993 243.66,1.715 L255.03,16.235 C255,15.8849983 254.975,15.5400017 254.955,15.2 C254.935,14.8599983 254.925,14.5450014 254.925,14.255 L254.925,1.07 L258.48,1.07 Z" id="DESIGN" fill="#787878"></path>
        </g>
    </g>
</svg>