<svg width="493" height="128" viewBox="0 0 493 128" fill="none" xmlns="http://www.w3.org/2000/svg">
<path d="M95.58 86H85.56L68.04 58.04V86H58.62V43.46H70.14L86.1 69.32V43.46H95.58V86ZM113.253 86H104.133V56.18H113.253V86ZM104.913 50.84C103.873 49.8 103.353 48.54 103.353 47.06C103.353 45.58 103.873 44.32 104.913 43.28C105.953 42.24 107.193 41.72 108.633 41.72C110.113 41.72 111.373 42.24 112.413 43.28C113.493 44.32 114.033 45.58 114.033 47.06C114.033 48.54 113.493 49.8 112.413 50.84C111.373 51.88 110.113 52.4 108.633 52.4C107.193 52.4 105.953 51.88 104.913 50.84ZM118.783 77.54L126.523 76.16C126.603 77.28 127.023 78.24 127.783 79.04C128.583 79.8 129.723 80.18 131.203 80.18C132.323 80.18 133.183 79.94 133.783 79.46C134.383 78.94 134.683 78.32 134.683 77.6C134.683 76.4 133.703 75.58 131.743 75.14L128.323 74.36C125.283 73.72 123.043 72.6 121.603 71C120.163 69.36 119.443 67.42 119.443 65.18C119.443 62.42 120.523 60.08 122.683 58.16C124.883 56.24 127.623 55.28 130.903 55.28C134.783 55.28 137.683 56.22 139.603 58.1C141.563 59.94 142.643 61.96 142.843 64.16L135.283 65.54C135.163 64.46 134.743 63.58 134.023 62.9C133.343 62.22 132.343 61.88 131.023 61.88C130.143 61.88 129.383 62.12 128.743 62.6C128.103 63.08 127.783 63.7 127.783 64.46C127.783 65.66 128.563 66.4 130.123 66.68L134.083 67.46C137.083 68.06 139.363 69.2 140.923 70.88C142.483 72.56 143.263 74.54 143.263 76.82C143.263 79.58 142.223 81.96 140.143 83.96C138.063 85.92 135.143 86.9 131.383 86.9C129.183 86.9 127.223 86.58 125.503 85.94C123.823 85.3 122.523 84.48 121.603 83.48C120.723 82.44 120.043 81.42 119.563 80.42C119.123 79.42 118.863 78.46 118.783 77.54ZM158.312 68.48V86H149.192V42.56H158.312V58.1C160.112 56.3 162.652 55.4 165.932 55.4C169.652 55.4 172.452 56.52 174.332 58.76C176.252 60.96 177.212 63.8 177.212 67.28V86H168.092V68.84C168.092 67.28 167.672 66.04 166.832 65.12C166.032 64.16 164.832 63.68 163.232 63.68C161.832 63.68 160.672 64.14 159.752 65.06C158.872 65.94 158.392 67.08 158.312 68.48ZM183.075 77.78C183.075 75.26 183.895 73.24 185.535 71.72C187.175 70.16 189.295 69.18 191.895 68.78L198.915 67.7C200.355 67.5 201.075 66.82 201.075 65.66C201.075 64.74 200.675 63.98 199.875 63.38C199.115 62.74 198.055 62.42 196.695 62.42C195.175 62.42 193.955 62.86 193.035 63.74C192.155 64.58 191.675 65.6 191.595 66.8L183.675 65.18C183.875 62.7 185.095 60.44 187.335 58.4C189.615 56.32 192.755 55.28 196.755 55.28C201.275 55.28 204.595 56.36 206.715 58.52C208.875 60.68 209.955 63.44 209.955 66.8V81.38C209.955 83.26 210.075 84.8 210.315 86H202.095C201.895 85.2 201.795 84.08 201.795 82.64C200.075 85.44 197.275 86.84 193.395 86.84C190.235 86.84 187.715 85.96 185.835 84.2C183.995 82.4 183.075 80.26 183.075 77.78ZM195.615 80.24C197.175 80.24 198.475 79.78 199.515 78.86C200.555 77.94 201.075 76.42 201.075 74.3V72.98L195.435 73.88C193.195 74.24 192.075 75.34 192.075 77.18C192.075 78.02 192.355 78.74 192.915 79.34C193.515 79.94 194.415 80.24 195.615 80.24ZM226.749 86H217.629V42.56H226.749V86Z" fill="#111111"/>
<path d="M236.237 84.74C235.037 83.5 234.437 82.04 234.437 80.36C234.437 78.68 235.037 77.24 236.237 76.04C237.437 74.84 238.877 74.24 240.557 74.24C242.237 74.24 243.677 74.84 244.877 76.04C246.117 77.24 246.737 78.68 246.737 80.36C246.737 82 246.117 83.44 244.877 84.68C243.677 85.92 242.237 86.54 240.557 86.54C238.877 86.54 237.437 85.94 236.237 84.74Z" fill="#C79500"/>
<path d="M264.506 77.06H270.026C273.506 77.06 276.346 76.02 278.546 73.94C280.786 71.86 281.906 68.8 281.906 64.76C281.906 60.68 280.786 57.6 278.546 55.52C276.346 53.44 273.506 52.4 270.026 52.4H264.506V77.06ZM270.386 86H255.026V43.46H270.446C276.886 43.46 282.046 45.38 285.926 49.22C289.846 53.06 291.806 58.24 291.806 64.76C291.806 71.28 289.846 76.46 285.926 80.3C282.046 84.1 276.866 86 270.386 86ZM305.154 67.52H317.094C317.014 66.16 316.474 64.98 315.474 63.98C314.514 62.98 313.054 62.48 311.094 62.48C309.334 62.48 307.934 63 306.894 64.04C305.854 65.08 305.274 66.24 305.154 67.52ZM317.754 75.26L325.374 77.42C324.614 80.18 323.034 82.46 320.634 84.26C318.234 86.02 315.234 86.9 311.634 86.9C307.314 86.9 303.634 85.46 300.594 82.58C297.594 79.7 296.094 75.84 296.094 71C296.094 66.36 297.554 62.58 300.474 59.66C303.434 56.74 306.934 55.28 310.974 55.28C315.614 55.28 319.254 56.64 321.894 59.36C324.574 62.04 325.914 65.78 325.914 70.58C325.914 72.1 325.854 73.04 325.734 73.4H304.974C305.054 75.04 305.754 76.42 307.074 77.54C308.394 78.62 309.954 79.16 311.754 79.16C314.834 79.16 316.834 77.86 317.754 75.26ZM329.31 77.54L337.05 76.16C337.13 77.28 337.55 78.24 338.31 79.04C339.11 79.8 340.25 80.18 341.73 80.18C342.85 80.18 343.71 79.94 344.31 79.46C344.91 78.94 345.21 78.32 345.21 77.6C345.21 76.4 344.23 75.58 342.27 75.14L338.85 74.36C335.81 73.72 333.57 72.6 332.13 71C330.69 69.36 329.97 67.42 329.97 65.18C329.97 62.42 331.05 60.08 333.21 58.16C335.41 56.24 338.15 55.28 341.43 55.28C345.31 55.28 348.21 56.22 350.13 58.1C352.09 59.94 353.17 61.96 353.37 64.16L345.81 65.54C345.69 64.46 345.27 63.58 344.55 62.9C343.87 62.22 342.87 61.88 341.55 61.88C340.67 61.88 339.91 62.12 339.27 62.6C338.63 63.08 338.31 63.7 338.31 64.46C338.31 65.66 339.09 66.4 340.65 66.68L344.61 67.46C347.61 68.06 349.89 69.2 351.45 70.88C353.01 72.56 353.79 74.54 353.79 76.82C353.79 79.58 352.75 81.96 350.67 83.96C348.59 85.92 345.67 86.9 341.91 86.9C339.71 86.9 337.75 86.58 336.03 85.94C334.35 85.3 333.05 84.48 332.13 83.48C331.25 82.44 330.57 81.42 330.09 80.42C329.65 79.42 329.39 78.46 329.31 77.54ZM368.839 86H359.719V56.18H368.839V86ZM360.499 50.84C359.459 49.8 358.939 48.54 358.939 47.06C358.939 45.58 359.459 44.32 360.499 43.28C361.539 42.24 362.779 41.72 364.219 41.72C365.699 41.72 366.959 42.24 367.999 43.28C369.079 44.32 369.619 45.58 369.619 47.06C369.619 48.54 369.079 49.8 367.999 50.84C366.959 51.88 365.699 52.4 364.219 52.4C362.779 52.4 361.539 51.88 360.499 50.84ZM374.729 87.68L382.769 85.4C383.089 86.88 383.809 88.08 384.929 89C386.089 89.92 387.509 90.38 389.189 90.38C394.109 90.38 396.569 87.84 396.569 82.76V81.38C395.089 83.62 392.429 84.74 388.589 84.74C384.629 84.74 381.329 83.36 378.689 80.6C376.049 77.84 374.729 74.38 374.729 70.22C374.729 66.22 376.029 62.8 378.629 59.96C381.269 57.08 384.589 55.64 388.589 55.64C390.789 55.64 392.589 56.02 393.989 56.78C395.389 57.54 396.349 58.4 396.869 59.36V56.18H405.569V82.28C405.569 86.92 404.229 90.74 401.549 93.74C398.869 96.78 394.889 98.3 389.609 98.3C385.529 98.3 382.129 97.24 379.409 95.12C376.729 93.04 375.169 90.56 374.729 87.68ZM385.649 75.02C386.849 76.22 388.389 76.82 390.269 76.82C392.149 76.82 393.669 76.22 394.829 75.02C396.029 73.82 396.629 72.22 396.629 70.22C396.629 68.26 396.009 66.68 394.769 65.48C393.529 64.24 392.029 63.62 390.269 63.62C388.509 63.62 386.989 64.24 385.709 65.48C384.469 66.68 383.849 68.26 383.849 70.22C383.849 72.22 384.449 73.82 385.649 75.02ZM422.394 68.9V86H413.274V56.18H422.094V59.6C422.854 58.28 424.014 57.26 425.574 56.54C427.174 55.78 428.794 55.4 430.434 55.4C433.994 55.4 436.694 56.52 438.534 58.76C440.374 60.96 441.294 63.8 441.294 67.28V86H432.174V68.84C432.174 67.28 431.754 66.04 430.914 65.12C430.114 64.16 428.914 63.68 427.314 63.68C425.834 63.68 424.634 64.18 423.714 65.18C422.834 66.14 422.394 67.38 422.394 68.9Z" fill="#8C8C86"/>
</svg>
