<svg width="393" height="113" viewBox="0 0 393 113" fill="none" xmlns="http://www.w3.org/2000/svg">
<path d="M41.58 71H31.56L14.04 43.04V71H4.62V28.46H16.14L32.1 54.32V28.46H41.58V71ZM59.2533 71H50.1333V41.18H59.2533V71ZM50.9133 35.84C49.8733 34.8 49.3533 33.54 49.3533 32.06C49.3533 30.58 49.8733 29.32 50.9133 28.28C51.9533 27.24 53.1933 26.72 54.6333 26.72C56.1133 26.72 57.3733 27.24 58.4133 28.28C59.4933 29.32 60.0333 30.58 60.0333 32.06C60.0333 33.54 59.4933 34.8 58.4133 35.84C57.3733 36.88 56.1133 37.4 54.6333 37.4C53.1933 37.4 51.9533 36.88 50.9133 35.84ZM64.7827 62.54L72.5227 61.16C72.6027 62.28 73.0227 63.24 73.7827 64.04C74.5827 64.8 75.7227 65.18 77.2027 65.18C78.3227 65.18 79.1827 64.94 79.7827 64.46C80.3827 63.94 80.6827 63.32 80.6827 62.6C80.6827 61.4 79.7027 60.58 77.7427 60.14L74.3227 59.36C71.2827 58.72 69.0427 57.6 67.6027 56C66.1627 54.36 65.4427 52.42 65.4427 50.18C65.4427 47.42 66.5227 45.08 68.6827 43.16C70.8827 41.24 73.6227 40.28 76.9027 40.28C80.7827 40.28 83.6827 41.22 85.6027 43.1C87.5627 44.94 88.6427 46.96 88.8427 49.16L81.2827 50.54C81.1627 49.46 80.7427 48.58 80.0227 47.9C79.3427 47.22 78.3427 46.88 77.0227 46.88C76.1427 46.88 75.3827 47.12 74.7427 47.6C74.1027 48.08 73.7827 48.7 73.7827 49.46C73.7827 50.66 74.5627 51.4 76.1227 51.68L80.0827 52.46C83.0827 53.06 85.3627 54.2 86.9227 55.88C88.4827 57.56 89.2627 59.54 89.2627 61.82C89.2627 64.58 88.2227 66.96 86.1427 68.96C84.0627 70.92 81.1427 71.9 77.3827 71.9C75.1827 71.9 73.2227 71.58 71.5027 70.94C69.8227 70.3 68.5227 69.48 67.6027 68.48C66.7227 67.44 66.0427 66.42 65.5627 65.42C65.1227 64.42 64.8627 63.46 64.7827 62.54ZM104.312 53.48V71H95.1919V27.56H104.312V43.1C106.112 41.3 108.652 40.4 111.932 40.4C115.652 40.4 118.452 41.52 120.332 43.76C122.252 45.96 123.212 48.8 123.212 52.28V71H114.092V53.84C114.092 52.28 113.672 51.04 112.832 50.12C112.032 49.16 110.832 48.68 109.232 48.68C107.832 48.68 106.672 49.14 105.752 50.06C104.872 50.94 104.392 52.08 104.312 53.48ZM129.075 62.78C129.075 60.26 129.895 58.24 131.535 56.72C133.175 55.16 135.295 54.18 137.895 53.78L144.915 52.7C146.355 52.5 147.075 51.82 147.075 50.66C147.075 49.74 146.675 48.98 145.875 48.38C145.115 47.74 144.055 47.42 142.695 47.42C141.175 47.42 139.955 47.86 139.035 48.74C138.155 49.58 137.675 50.6 137.595 51.8L129.675 50.18C129.875 47.7 131.095 45.44 133.335 43.4C135.615 41.32 138.755 40.28 142.755 40.28C147.275 40.28 150.595 41.36 152.715 43.52C154.875 45.68 155.955 48.44 155.955 51.8V66.38C155.955 68.26 156.075 69.8 156.315 71H148.095C147.895 70.2 147.795 69.08 147.795 67.64C146.075 70.44 143.275 71.84 139.395 71.84C136.235 71.84 133.715 70.96 131.835 69.2C129.995 67.4 129.075 65.26 129.075 62.78ZM141.615 65.24C143.175 65.24 144.475 64.78 145.515 63.86C146.555 62.94 147.075 61.42 147.075 59.3V57.98L141.435 58.88C139.195 59.24 138.075 60.34 138.075 62.18C138.075 63.02 138.355 63.74 138.915 64.34C139.515 64.94 140.415 65.24 141.615 65.24ZM172.749 71H163.629V27.56H172.749V71Z" fill="#111111"/>
<path d="M182.237 69.74C181.037 68.5 180.437 67.04 180.437 65.36C180.437 63.68 181.037 62.24 182.237 61.04C183.437 59.84 184.877 59.24 186.557 59.24C188.237 59.24 189.677 59.84 190.877 61.04C192.117 62.24 192.737 63.68 192.737 65.36C192.737 67 192.117 68.44 190.877 69.68C189.677 70.92 188.237 71.54 186.557 71.54C184.877 71.54 183.437 70.94 182.237 69.74Z" fill="#C79500"/>
<path d="M210.506 62.06H216.026C219.506 62.06 222.346 61.02 224.546 58.94C226.786 56.86 227.906 53.8 227.906 49.76C227.906 45.68 226.786 42.6 224.546 40.52C222.346 38.44 219.506 37.4 216.026 37.4H210.506V62.06ZM216.386 71H201.026V28.46H216.446C222.886 28.46 228.046 30.38 231.926 34.22C235.846 38.06 237.806 43.24 237.806 49.76C237.806 56.28 235.846 61.46 231.926 65.3C228.046 69.1 222.866 71 216.386 71ZM251.154 52.52H263.094C263.014 51.16 262.474 49.98 261.474 48.98C260.514 47.98 259.054 47.48 257.094 47.48C255.334 47.48 253.934 48 252.894 49.04C251.854 50.08 251.274 51.24 251.154 52.52ZM263.754 60.26L271.374 62.42C270.614 65.18 269.034 67.46 266.634 69.26C264.234 71.02 261.234 71.9 257.634 71.9C253.314 71.9 249.634 70.46 246.594 67.58C243.594 64.7 242.094 60.84 242.094 56C242.094 51.36 243.554 47.58 246.474 44.66C249.434 41.74 252.934 40.28 256.974 40.28C261.614 40.28 265.254 41.64 267.894 44.36C270.574 47.04 271.914 50.78 271.914 55.58C271.914 57.1 271.854 58.04 271.734 58.4H250.974C251.054 60.04 251.754 61.42 253.074 62.54C254.394 63.62 255.954 64.16 257.754 64.16C260.834 64.16 262.834 62.86 263.754 60.26ZM275.31 62.54L283.05 61.16C283.13 62.28 283.55 63.24 284.31 64.04C285.11 64.8 286.25 65.18 287.73 65.18C288.85 65.18 289.71 64.94 290.31 64.46C290.91 63.94 291.21 63.32 291.21 62.6C291.21 61.4 290.23 60.58 288.27 60.14L284.85 59.36C281.81 58.72 279.57 57.6 278.13 56C276.69 54.36 275.97 52.42 275.97 50.18C275.97 47.42 277.05 45.08 279.21 43.16C281.41 41.24 284.15 40.28 287.43 40.28C291.31 40.28 294.21 41.22 296.13 43.1C298.09 44.94 299.17 46.96 299.37 49.16L291.81 50.54C291.69 49.46 291.27 48.58 290.55 47.9C289.87 47.22 288.87 46.88 287.55 46.88C286.67 46.88 285.91 47.12 285.27 47.6C284.63 48.08 284.31 48.7 284.31 49.46C284.31 50.66 285.09 51.4 286.65 51.68L290.61 52.46C293.61 53.06 295.89 54.2 297.45 55.88C299.01 57.56 299.79 59.54 299.79 61.82C299.79 64.58 298.75 66.96 296.67 68.96C294.59 70.92 291.67 71.9 287.91 71.9C285.71 71.9 283.75 71.58 282.03 70.94C280.35 70.3 279.05 69.48 278.13 68.48C277.25 67.44 276.57 66.42 276.09 65.42C275.65 64.42 275.39 63.46 275.31 62.54ZM314.839 71H305.719V41.18H314.839V71ZM306.499 35.84C305.459 34.8 304.939 33.54 304.939 32.06C304.939 30.58 305.459 29.32 306.499 28.28C307.539 27.24 308.779 26.72 310.219 26.72C311.699 26.72 312.959 27.24 313.999 28.28C315.079 29.32 315.619 30.58 315.619 32.06C315.619 33.54 315.079 34.8 313.999 35.84C312.959 36.88 311.699 37.4 310.219 37.4C308.779 37.4 307.539 36.88 306.499 35.84ZM320.729 72.68L328.769 70.4C329.089 71.88 329.809 73.08 330.929 74C332.089 74.92 333.509 75.38 335.189 75.38C340.109 75.38 342.569 72.84 342.569 67.76V66.38C341.089 68.62 338.429 69.74 334.589 69.74C330.629 69.74 327.329 68.36 324.689 65.6C322.049 62.84 320.729 59.38 320.729 55.22C320.729 51.22 322.029 47.8 324.629 44.96C327.269 42.08 330.589 40.64 334.589 40.64C336.789 40.64 338.589 41.02 339.989 41.78C341.389 42.54 342.349 43.4 342.869 44.36V41.18H351.569V67.28C351.569 71.92 350.229 75.74 347.549 78.74C344.869 81.78 340.889 83.3 335.609 83.3C331.529 83.3 328.129 82.24 325.409 80.12C322.729 78.04 321.169 75.56 320.729 72.68ZM331.649 60.02C332.849 61.22 334.389 61.82 336.269 61.82C338.149 61.82 339.669 61.22 340.829 60.02C342.029 58.82 342.629 57.22 342.629 55.22C342.629 53.26 342.009 51.68 340.769 50.48C339.529 49.24 338.029 48.62 336.269 48.62C334.509 48.62 332.989 49.24 331.709 50.48C330.469 51.68 329.849 53.26 329.849 55.22C329.849 57.22 330.449 58.82 331.649 60.02ZM368.394 53.9V71H359.274V41.18H368.094V44.6C368.854 43.28 370.014 42.26 371.574 41.54C373.174 40.78 374.794 40.4 376.434 40.4C379.994 40.4 382.694 41.52 384.534 43.76C386.374 45.96 387.294 48.8 387.294 52.28V71H378.174V53.84C378.174 52.28 377.754 51.04 376.914 50.12C376.114 49.16 374.914 48.68 373.314 48.68C371.834 48.68 370.634 49.18 369.714 50.18C368.834 51.14 368.394 52.38 368.394 53.9Z" fill="#8C8C86"/>
</svg>
