<svg width="393" height="113" viewBox="0 0 393 113" fill="none" xmlns="http://www.w3.org/2000/svg">
<path d="M41.58 71H31.56L14.04 43.04V71H4.62V28.46H16.14L32.1 54.32V28.46H41.58V71ZM59.2533 71H50.1333V41.18H59.2533V71ZM50.9133 35.84C49.8733 34.8 49.3533 33.54 49.3533 32.06C49.3533 30.58 49.8733 29.32 50.9133 28.28C51.9533 27.24 53.1933 26.72 54.6333 26.72C56.1133 26.72 57.3733 27.24 58.4133 28.28C59.4933 29.32 60.0333 30.58 60.0333 32.06C60.0333 33.54 59.4933 34.8 58.4133 35.84C57.3733 36.88 56.1133 37.4 54.6333 37.4C53.1933 37.4 51.9533 36.88 50.9133 35.84ZM64.7827 62.54L72.5227 61.16C72.6027 62.28 73.0227 63.24 73.7827 64.04C74.5827 64.8 75.7227 65.18 77.2027 65.18C78.3227 65.18 79.1827 64.94 79.7827 64.46C80.3827 63.94 80.6827 63.32 80.6827 62.6C80.6827 61.4 79.7027 60.58 77.7427 60.14L74.3227 59.36C71.2827 58.72 69.0427 57.6 67.6027 56C66.1627 54.36 65.4427 52.42 65.4427 50.18C65.4427 47.42 66.5227 45.08 68.6827 43.16C70.8827 41.24 73.6227 40.28 76.9027 40.28C80.7827 40.28 83.6827 41.22 85.6027 43.1C87.5627 44.94 88.6427 46.96 88.8427 49.16L81.2827 50.54C81.1627 49.46 80.7427 48.58 80.0227 47.9C79.3427 47.22 78.3427 46.88 77.0227 46.88C76.1427 46.88 75.3827 47.12 74.7427 47.6C74.1027 48.08 73.7827 48.7 73.7827 49.46C73.7827 50.66 74.5627 51.4 76.1227 51.68L80.0827 52.46C83.0827 53.06 85.3627 54.2 86.9227 55.88C88.4827 57.56 89.2627 59.54 89.2627 61.82C89.2627 64.58 88.2227 66.96 86.1427 68.96C84.0627 70.92 81.1427 71.9 77.3827 71.9C75.1827 71.9 73.2227 71.58 71.5027 70.94C69.8227 70.3 68.5227 69.48 67.6027 68.48C66.7227 67.44 66.0427 66.42 65.5627 65.42C65.1227 64.42 64.8627 63.46 64.7827 62.54ZM104.312 53.48V71H95.1919V27.56H104.312V43.1C106.112 41.3 108.652 40.4 111.932 40.4C115.652 40.4 118.452 41.52 120.332 43.76C122.252 45.96 123.212 48.8 123.212 52.28V71H114.092V53.84C114.092 52.28 113.672 51.04 112.832 50.12C112.032 49.16 110.832 48.68 109.232 48.68C107.832 48.68 106.672 49.14 105.752 50.06C104.872 50.94 104.392 52.08 104.312 53.48ZM129.075 62.78C129.075 60.26 129.895 58.24 131.535 56.72C133.175 55.16 135.295 54.18 137.895 53.78L144.915 52.7C146.355 52.5 147.075 51.82 147.075 50.66C147.075 49.74 146.675 48.98 145.875 48.38C145.115 47.74 144.055 47.42 142.695 47.42C141.175 47.42 139.955 47.86 139.035 48.74C138.155 49.58 137.675 50.6 137.595 51.8L129.675 50.18C129.875 47.7 131.095 45.44 133.335 43.4C135.615 41.32 138.755 40.28 142.755 40.28C147.275 40.28 150.595 41.36 152.715 43.52C154.875 45.68 155.955 48.44 155.955 51.8V66.38C155.955 68.26 156.075 69.8 156.315 71H148.095C147.895 70.2 147.795 69.08 147.795 67.64C146.075 70.44 143.275 71.84 139.395 71.84C136.235 71.84 133.715 70.96 131.835 69.2C129.995 67.4 129.075 65.26 129.075 62.78ZM141.615 65.24C143.175 65.24 144.475 64.78 145.515 63.86C146.555 62.94 147.075 61.42 147.075 59.3V57.98L141.435 58.88C139.195 59.24 138.075 60.34 138.075 62.18C138.075 63.02 138.355 63.74 138.915 64.34C139.515 64.94 140.415 65.24 141.615 65.24ZM172.749 71H163.629V27.56H172.749V71Z" fill="#111111"/>
<path d="M181.71 69.74C180.51 68.5 179.91 67.04 179.91 65.36C179.91 63.68 180.51 62.24 181.71 61.04C182.91 59.84 184.35 59.24 186.03 59.24C187.71 59.24 189.15 59.84 190.35 61.04C191.59 62.24 192.21 63.68 192.21 65.36C192.21 67 191.59 68.44 190.35 69.68C189.15 70.92 187.71 71.54 186.03 71.54C184.35 71.54 182.91 70.94 181.71 69.74Z" fill="#7ACF61"/>
<path d="M209.979 62.06H215.499C218.979 62.06 221.819 61.02 224.019 58.94C226.259 56.86 227.379 53.8 227.379 49.76C227.379 45.68 226.259 42.6 224.019 40.52C221.819 38.44 218.979 37.4 215.499 37.4H209.979V62.06ZM215.859 71H200.499V28.46H215.919C222.359 28.46 227.519 30.38 231.399 34.22C235.319 38.06 237.279 43.24 237.279 49.76C237.279 56.28 235.319 61.46 231.399 65.3C227.519 69.1 222.339 71 215.859 71ZM250.627 52.52H262.567C262.487 51.16 261.947 49.98 260.947 48.98C259.987 47.98 258.527 47.48 256.567 47.48C254.807 47.48 253.407 48 252.367 49.04C251.327 50.08 250.747 51.24 250.627 52.52ZM263.227 60.26L270.847 62.42C270.087 65.18 268.507 67.46 266.107 69.26C263.707 71.02 260.707 71.9 257.107 71.9C252.787 71.9 249.107 70.46 246.067 67.58C243.067 64.7 241.567 60.84 241.567 56C241.567 51.36 243.027 47.58 245.947 44.66C248.907 41.74 252.407 40.28 256.447 40.28C261.087 40.28 264.727 41.64 267.367 44.36C270.047 47.04 271.387 50.78 271.387 55.58C271.387 57.1 271.327 58.04 271.207 58.4H250.447C250.527 60.04 251.227 61.42 252.547 62.54C253.867 63.62 255.427 64.16 257.227 64.16C260.307 64.16 262.307 62.86 263.227 60.26ZM274.783 62.54L282.523 61.16C282.603 62.28 283.023 63.24 283.783 64.04C284.583 64.8 285.723 65.18 287.203 65.18C288.323 65.18 289.183 64.94 289.783 64.46C290.383 63.94 290.683 63.32 290.683 62.6C290.683 61.4 289.703 60.58 287.743 60.14L284.323 59.36C281.283 58.72 279.043 57.6 277.603 56C276.163 54.36 275.443 52.42 275.443 50.18C275.443 47.42 276.523 45.08 278.683 43.16C280.883 41.24 283.623 40.28 286.903 40.28C290.783 40.28 293.683 41.22 295.603 43.1C297.563 44.94 298.643 46.96 298.843 49.16L291.283 50.54C291.163 49.46 290.743 48.58 290.023 47.9C289.343 47.22 288.343 46.88 287.023 46.88C286.143 46.88 285.383 47.12 284.743 47.6C284.103 48.08 283.783 48.7 283.783 49.46C283.783 50.66 284.563 51.4 286.123 51.68L290.083 52.46C293.083 53.06 295.363 54.2 296.923 55.88C298.483 57.56 299.263 59.54 299.263 61.82C299.263 64.58 298.223 66.96 296.143 68.96C294.063 70.92 291.143 71.9 287.383 71.9C285.183 71.9 283.223 71.58 281.503 70.94C279.823 70.3 278.523 69.48 277.603 68.48C276.723 67.44 276.043 66.42 275.563 65.42C275.123 64.42 274.863 63.46 274.783 62.54ZM314.312 71H305.192V41.18H314.312V71ZM305.972 35.84C304.932 34.8 304.412 33.54 304.412 32.06C304.412 30.58 304.932 29.32 305.972 28.28C307.012 27.24 308.252 26.72 309.692 26.72C311.172 26.72 312.432 27.24 313.472 28.28C314.552 29.32 315.092 30.58 315.092 32.06C315.092 33.54 314.552 34.8 313.472 35.84C312.432 36.88 311.172 37.4 309.692 37.4C308.252 37.4 307.012 36.88 305.972 35.84ZM320.201 72.68L328.241 70.4C328.561 71.88 329.281 73.08 330.401 74C331.561 74.92 332.981 75.38 334.661 75.38C339.581 75.38 342.041 72.84 342.041 67.76V66.38C340.561 68.62 337.901 69.74 334.061 69.74C330.101 69.74 326.801 68.36 324.161 65.6C321.521 62.84 320.201 59.38 320.201 55.22C320.201 51.22 321.501 47.8 324.101 44.96C326.741 42.08 330.061 40.64 334.061 40.64C336.261 40.64 338.061 41.02 339.461 41.78C340.861 42.54 341.821 43.4 342.341 44.36V41.18H351.041V67.28C351.041 71.92 349.701 75.74 347.021 78.74C344.341 81.78 340.361 83.3 335.081 83.3C331.001 83.3 327.601 82.24 324.881 80.12C322.201 78.04 320.641 75.56 320.201 72.68ZM331.121 60.02C332.321 61.22 333.861 61.82 335.741 61.82C337.621 61.82 339.141 61.22 340.301 60.02C341.501 58.82 342.101 57.22 342.101 55.22C342.101 53.26 341.481 51.68 340.241 50.48C339.001 49.24 337.501 48.62 335.741 48.62C333.981 48.62 332.461 49.24 331.181 50.48C329.941 51.68 329.321 53.26 329.321 55.22C329.321 57.22 329.921 58.82 331.121 60.02ZM367.867 53.9V71H358.747V41.18H367.567V44.6C368.327 43.28 369.487 42.26 371.047 41.54C372.647 40.78 374.267 40.4 375.907 40.4C379.467 40.4 382.167 41.52 384.007 43.76C385.847 45.96 386.767 48.8 386.767 52.28V71H377.647V53.84C377.647 52.28 377.227 51.04 376.387 50.12C375.587 49.16 374.387 48.68 372.787 48.68C371.307 48.68 370.107 49.18 369.187 50.18C368.307 51.14 367.867 52.38 367.867 53.9Z" fill="#768772"/>
</svg>
